<svg width="512" height="512" viewBox="0 0 512 512" fill="none" xmlns="http://www.w3.org/2000/svg">
  <rect width="512" height="512" rx="120" fill="url(#paint0_linear)"/>
  <path d="M384 128H128C110.327 128 96 142.327 96 160V352C96 369.673 110.327 384 128 384H384C401.673 384 416 369.673 416 352V160C416 142.327 401.673 128 384 128Z" fill="white" fill-opacity="0.2"/>
  <path d="M384 160H128C110.327 160 96 174.327 96 192V352C96 369.673 110.327 384 128 384H384C401.673 384 416 369.673 416 352V192C416 174.327 401.673 160 384 160Z" fill="white"/>
  <path d="M352 256H416V288H352C343.163 288 336 280.837 336 272C336 263.163 343.163 256 352 256Z" fill="#4F46E5"/>
  <defs>
    <linearGradient id="paint0_linear" x1="0" y1="0" x2="512" y2="512" gradientUnits="userSpaceOnUse">
      <stop stop-color="#4F46E5"/>
      <stop offset="1" stop-color="#9333EA"/>
    </linearGradient>
  </defs>
</svg>